<?xml version="1.0" standalone="no"?>
<!DOCTYPE svg PUBLIC "-//W3C//DTD SVG 20010904//EN"
 "http://www.w3.org/TR/2001/REC-SVG-20010904/DTD/svg10.dtd">
<svg version="1.0" xmlns="http://www.w3.org/2000/svg"
 width="230.000000pt" height="230.000000pt" viewBox="0 0 230.000000 230.000000"
 preserveAspectRatio="xMidYMid meet">
<metadata>
Created by potrace 1.11, written by Peter Selinger 2001-2013
</metadata>
<g transform="translate(0.000000,230.000000) scale(0.100000,-0.100000)"
fill="#000000" stroke="none">
<path d="M2045 1985 c-99 -35 -306 -107 -460 -160 -273 -94 -733 -253 -985
-340 -69 -24 -227 -79 -352 -122 -125 -43 -228 -83 -228 -90 0 -6 12 -18 27
-26 16 -7 78 -42 138 -77 125 -71 133 -75 270 -153 55 -30 108 -62 118 -69 13
-9 33 -72 66 -201 26 -103 53 -193 59 -199 7 -7 44 36 127 146 65 86 121 156
125 156 4 0 29 -9 56 -19 27 -11 99 -38 159 -61 61 -23 144 -55 185 -71 337
-130 464 -176 479 -172 12 3 39 82 104 306 49 166 101 345 117 397 16 52 74
252 130 443 97 332 101 349 83 362 -10 8 -22 14 -28 14 -5 0 -91 -29 -190 -64z
m-55 -108 c-69 -45 -195 -127 -280 -182 -85 -55 -218 -141 -295 -192 -77 -50
-198 -129 -270 -176 -71 -46 -218 -142 -325 -212 -107 -70 -204 -132 -215
-137 -17 -8 -66 16 -273 133 -139 79 -249 146 -244 150 4 3 108 41 232 84 124
42 275 94 335 115 61 21 243 84 405 140 672 232 820 284 920 320 58 21 112 38
120 39 8 0 -41 -36 -110 -82z m225 61 c-3 -7 -50 -168 -106 -358 -55 -190
-117 -403 -138 -475 -21 -71 -65 -220 -97 -330 -31 -110 -60 -204 -64 -208 -6
-7 -815 296 -830 310 -3 3 9 16 25 30 17 14 46 39 66 57 51 44 119 104 424
366 149 128 297 256 330 285 85 74 221 191 289 250 32 28 68 58 79 68 24 20
28 21 22 5z m-180 -87 c-48 -42 -206 -179 -320 -276 -77 -66 -142 -122 -145
-125 -3 -3 -36 -32 -75 -65 -38 -33 -72 -62 -75 -66 -3 -3 -117 -101 -254
-219 -236 -203 -254 -221 -354 -354 l-106 -140 -13 49 c-7 28 -15 61 -18 75
-3 14 -16 66 -29 117 l-24 92 142 91 c77 50 194 126 258 168 65 42 288 187
495 322 207 135 408 266 447 292 68 45 91 58 71 39z"/>
</g>
</svg>
