<?xml version="1.0" standalone="no"?>
<!DOCTYPE svg PUBLIC "-//W3C//DTD SVG 20010904//EN"
 "http://www.w3.org/TR/2001/REC-SVG-20010904/DTD/svg10.dtd">
<svg version="1.0" xmlns="http://www.w3.org/2000/svg"
 width="313.000000pt" height="313.000000pt" viewBox="0 0 313.000000 313.000000"
 preserveAspectRatio="xMidYMid meet">
<metadata>
Created by potrace 1.11, written by Peter Selinger 2001-2013
</metadata>
<g transform="translate(0.000000,313.000000) scale(0.100000,-0.100000)"
fill="#000000" stroke="none">
<path d="M1380 3005 c-145 -21 -297 -71 -430 -141 -358 -191 -610 -528 -697
-934 -25 -120 -25 -410 0 -530 92 -432 361 -779 752 -972 68 -34 214 -83 305
-103 104 -23 341 -31 449 -16 687 98 1182 670 1181 1365 -1 611 -410 1141
-1005 1303 -154 41 -384 53 -555 28z m432 -41 c394 -64 747 -318 937 -675 175
-328 203 -730 75 -1083 -128 -356 -435 -665 -784 -790 -709 -255 -1469 115
-1709 833 -47 139 -64 254 -64 421 2 353 131 670 375 919 307 312 728 447
1170 375z"/>
<path d="M1615 2174 c-1423 -485 -1307 -443 -1303 -468 2 -11 8 -21 13 -21 6
0 132 -71 281 -158 l270 -158 50 -194 c30 -120 54 -197 63 -200 8 -3 15 -4 16
-3 1 2 53 73 115 158 62 85 113 156 114 157 1 1 195 -72 432 -162 269 -104
437 -163 451 -160 12 3 24 13 27 23 50 168 425 1452 428 1466 2 11 -5 21 -17
26 -14 5 -295 -86 -940 -306z m764 202 c-2 -2 -341 -222 -752 -490 l-748 -486
-250 146 c-137 81 -247 149 -244 153 7 6 1974 680 1989 680 5 1 7 -1 5 -3z
m-80 -687 c-110 -376 -202 -685 -202 -685 -8 -6 -817 312 -814 320 3 10 1210
1056 1214 1052 2 -1 -88 -310 -198 -687z m-84 512 c-11 -10 -243 -211 -515
-446 l-495 -426 -102 -140 c-56 -77 -103 -136 -106 -132 -16 30 -79 305 -71
313 11 11 1297 849 1304 850 2 0 -4 -9 -15 -19z"/>
</g>
</svg>
